<?xml version="1.0" encoding="UTF-8" standalone="no"?>
<svg width="210px" height="116px" viewBox="0 0 210 116" version="1.1" xmlns="http://www.w3.org/2000/svg" xmlns:xlink="http://www.w3.org/1999/xlink" xmlns:sketch="http://www.bohemiancoding.com/sketch/ns">
    <!-- Generator: Sketch 3.5.2 (25235) - http://www.bohemiancoding.com/sketch -->
    <title>Artboard</title>
    <desc>Created with Sketch.</desc>
    <defs></defs>
    <g id="Page-1" stroke="none" stroke-width="1" fill="none" fill-rule="evenodd" sketch:type="MSPage">
        <g id="Artboard" sketch:type="MSArtboardGroup">
            <g id="Group-2" sketch:type="MSLayerGroup">
                <path d="M60,116 C93.137085,116 120,90.0325155 120,58 C120,25.9674845 93.137085,0 60,0 C26.862915,0 0,25.9674845 0,58 C0,90.0325155 26.862915,116 60,116 Z M60,100.707792 C84.8186164,100.707792 104.93808,81.2496223 104.93808,57.2467532 C104.93808,33.2438842 84.8186164,13.7857143 60,13.7857143 C35.1813836,13.7857143 15.0619198,33.2438842 15.0619198,57.2467532 C15.0619198,81.2496223 35.1813836,100.707792 60,100.707792 Z" id="Oval-1" fill="#D8D8D8" sketch:type="MSShapeGroup"></path>
                <text id="ClipIt" sketch:type="MSTextLayer" font-family="Myriad Pro" font-size="50" font-weight="bold" fill="#F43F3F">
                    <tspan x="89.5" y="75">ClipIt</tspan>
                </text>
                <g id="logo" transform="translate(27.000000, 28.000000)" fill="#F43F3F" sketch:type="MSShapeGroup">
                    <path d="M0.51324316,12.4275912 C0.513243166,17.6179512 2.85415098,22.8412637 12.385154,26.1674341 C21.9161571,29.4936046 30.9926285,39.7968331 37.5382603,43.6291015 C58.0351723,55.6294203 64.8291368,52.7113078 64.8291368,52.7113078 L19.7442029,25.126527 C19.7442029,25.126527 22.5460091,19.5025224 22.5460091,12.4275906 C22.5460091,5.35265882 19.552636,0.989895751 11.2204489,0.989895766 C2.88826169,0.989895782 0.513243154,7.23723108 0.51324316,12.4275912 Z M11.7857143,19.5687366 C16.01661,19.5687366 19.4464286,16.1347606 19.4464286,11.8987366 C19.4464286,7.66271258 16.01661,4.22873661 11.7857143,4.22873661 C7.55481861,4.22873661 4.125,7.66271258 4.125,11.8987366 C4.125,16.1347606 7.55481861,19.5687366 11.7857143,19.5687366 Z" id="snip-copy"></path>
                    <path d="M0.51324316,18.3275912 C0.513243166,23.5179512 2.85415098,28.7412637 12.385154,32.0674341 C21.9161571,35.3936046 30.9926285,45.6968331 37.5382603,49.5291015 C58.0351723,61.5294203 64.8291368,58.6113078 64.8291368,58.6113078 L19.7442029,31.026527 C19.7442029,31.026527 22.5460091,25.4025224 22.5460091,18.3275906 C22.5460091,11.2526588 19.552636,6.88989575 11.2204489,6.88989577 C2.88826169,6.88989578 0.513243154,13.1372311 0.51324316,18.3275912 Z M11.7857143,25.4687366 C16.01661,25.4687366 19.4464286,22.0347606 19.4464286,17.7987366 C19.4464286,13.5627126 16.01661,10.1287366 11.7857143,10.1287366 C7.55481861,10.1287366 4.125,13.5627126 4.125,17.7987366 C4.125,22.0347606 7.55481861,25.4687366 11.7857143,25.4687366 Z" id="snip-copy-2" transform="translate(32.671190, 32.906814) scale(1, -1) translate(-32.671190, -32.906814) "></path>
                </g>
            </g>
        </g>
    </g>
</svg>